<mxfile host="app.diagrams.net" modified="2024-07-21T13:39:47.085Z" agent="Mozilla/5.0 (Windows NT 10.0; Win64; x64) AppleWebKit/537.36 (KHTML, like Gecko) Chrome/126.0.0.0 Safari/537.36" etag="1qfn_jnK1Ah1c1dKSuh9" version="24.7.1" type="device">
  <diagram name="Page-1" id="xQoXVqMD-KFtI3_ND9tm">
    <mxGraphModel dx="794" dy="1512" grid="1" gridSize="10" guides="1" tooltips="1" connect="1" arrows="1" fold="1" page="1" pageScale="1" pageWidth="850" pageHeight="1100" math="0" shadow="0">
      <root>
        <mxCell id="0" />
        <mxCell id="1" parent="0" />
        <mxCell id="KemP2_x-M36B10j5vHPz-1" value="Pharmacy" style="swimlane;childLayout=stackLayout;horizontal=1;startSize=50;horizontalStack=0;rounded=1;fontSize=14;fontStyle=0;strokeWidth=2;resizeParent=0;resizeLast=1;shadow=0;dashed=0;align=center;arcSize=4;whiteSpace=wrap;html=1;" vertex="1" parent="1">
          <mxGeometry x="740" y="10" width="160" height="120" as="geometry" />
        </mxCell>
        <mxCell id="KemP2_x-M36B10j5vHPz-2" value="+ Medicine Name&lt;br&gt;+ Quantity" style="align=left;strokeColor=none;fillColor=none;spacingLeft=4;fontSize=12;verticalAlign=top;resizable=0;rotatable=0;part=1;html=1;" vertex="1" parent="KemP2_x-M36B10j5vHPz-1">
          <mxGeometry y="50" width="160" height="70" as="geometry" />
        </mxCell>
        <mxCell id="KemP2_x-M36B10j5vHPz-3" value="Archives" style="swimlane;childLayout=stackLayout;horizontal=1;startSize=50;horizontalStack=0;rounded=1;fontSize=14;fontStyle=0;strokeWidth=2;resizeParent=0;resizeLast=1;shadow=0;dashed=0;align=center;arcSize=4;whiteSpace=wrap;html=1;" vertex="1" parent="1">
          <mxGeometry x="410" y="220" width="160" height="120" as="geometry" />
        </mxCell>
        <mxCell id="KemP2_x-M36B10j5vHPz-4" value="+ Category&lt;br&gt;+ Topic&lt;br&gt;+ Info" style="align=left;strokeColor=none;fillColor=none;spacingLeft=4;fontSize=12;verticalAlign=top;resizable=0;rotatable=0;part=1;html=1;" vertex="1" parent="KemP2_x-M36B10j5vHPz-3">
          <mxGeometry y="50" width="160" height="70" as="geometry" />
        </mxCell>
        <mxCell id="KemP2_x-M36B10j5vHPz-5" value="Doctors" style="swimlane;childLayout=stackLayout;horizontal=1;startSize=50;horizontalStack=0;rounded=1;fontSize=14;fontStyle=0;strokeWidth=2;resizeParent=0;resizeLast=1;shadow=0;dashed=0;align=center;arcSize=4;whiteSpace=wrap;html=1;" vertex="1" parent="1">
          <mxGeometry x="240" y="-10" width="160" height="150" as="geometry">
            <mxRectangle x="290" y="30" width="90" height="50" as="alternateBounds" />
          </mxGeometry>
        </mxCell>
        <mxCell id="KemP2_x-M36B10j5vHPz-6" value="+ ID&lt;br&gt;+ Name&lt;br&gt;+ Specialty&lt;br&gt;+&amp;nbsp; Schedule&lt;br&gt;+ Nurse Assigned&amp;nbsp;" style="align=left;strokeColor=none;fillColor=none;spacingLeft=4;fontSize=12;verticalAlign=top;resizable=0;rotatable=0;part=1;html=1;" vertex="1" parent="KemP2_x-M36B10j5vHPz-5">
          <mxGeometry y="50" width="160" height="100" as="geometry" />
        </mxCell>
        <mxCell id="KemP2_x-M36B10j5vHPz-8" style="edgeStyle=orthogonalEdgeStyle;rounded=0;orthogonalLoop=1;jettySize=auto;html=1;exitX=1;exitY=0.75;exitDx=0;exitDy=0;" edge="1" parent="1" source="KemP2_x-M36B10j5vHPz-6" target="KemP2_x-M36B10j5vHPz-3">
          <mxGeometry relative="1" as="geometry" />
        </mxCell>
        <mxCell id="KemP2_x-M36B10j5vHPz-9" value="Patient" style="swimlane;childLayout=stackLayout;horizontal=1;startSize=50;horizontalStack=0;rounded=1;fontSize=14;fontStyle=0;strokeWidth=2;resizeParent=0;resizeLast=1;shadow=0;dashed=0;align=center;arcSize=4;whiteSpace=wrap;html=1;" vertex="1" parent="1">
          <mxGeometry x="520" y="10" width="160" height="170" as="geometry" />
        </mxCell>
        <mxCell id="KemP2_x-M36B10j5vHPz-10" value="+ ID&lt;br&gt;+ Name&lt;br&gt;+ Date of Birth&lt;br&gt;+ Medicines Assigned&lt;br&gt;&amp;nbsp;+ Severity Level&lt;br&gt;+ Vital Signs&lt;div&gt;+ Doctor Assigned To&lt;br&gt;+ Assigned Room&lt;/div&gt;" style="align=left;strokeColor=none;fillColor=none;spacingLeft=4;fontSize=12;verticalAlign=top;resizable=0;rotatable=0;part=1;html=1;" vertex="1" parent="KemP2_x-M36B10j5vHPz-9">
          <mxGeometry y="50" width="160" height="120" as="geometry" />
        </mxCell>
        <mxCell id="KemP2_x-M36B10j5vHPz-11" value="Patient History" style="swimlane;childLayout=stackLayout;horizontal=1;startSize=50;horizontalStack=0;rounded=1;fontSize=14;fontStyle=0;strokeWidth=2;resizeParent=0;resizeLast=1;shadow=0;dashed=0;align=center;arcSize=4;whiteSpace=wrap;html=1;" vertex="1" parent="1">
          <mxGeometry x="670" y="210" width="160" height="120" as="geometry" />
        </mxCell>
        <mxCell id="KemP2_x-M36B10j5vHPz-12" value="+ Date&lt;br&gt;+ Doctor Assigned&lt;br&gt;+ Doctor&#39;s Remarks&lt;br&gt;+ Meds took" style="align=left;strokeColor=none;fillColor=none;spacingLeft=4;fontSize=12;verticalAlign=top;resizable=0;rotatable=0;part=1;html=1;" vertex="1" parent="KemP2_x-M36B10j5vHPz-11">
          <mxGeometry y="50" width="160" height="70" as="geometry" />
        </mxCell>
        <mxCell id="KemP2_x-M36B10j5vHPz-13" style="edgeStyle=orthogonalEdgeStyle;rounded=0;orthogonalLoop=1;jettySize=auto;html=1;exitX=1;exitY=0.75;exitDx=0;exitDy=0;" edge="1" parent="1" source="KemP2_x-M36B10j5vHPz-10" target="KemP2_x-M36B10j5vHPz-11">
          <mxGeometry relative="1" as="geometry" />
        </mxCell>
        <mxCell id="KemP2_x-M36B10j5vHPz-14" style="edgeStyle=orthogonalEdgeStyle;rounded=0;orthogonalLoop=1;jettySize=auto;html=1;exitX=0;exitY=0.5;exitDx=0;exitDy=0;entryX=1;entryY=0.25;entryDx=0;entryDy=0;" edge="1" parent="1" source="KemP2_x-M36B10j5vHPz-2" target="KemP2_x-M36B10j5vHPz-10">
          <mxGeometry relative="1" as="geometry" />
        </mxCell>
        <mxCell id="KemP2_x-M36B10j5vHPz-18" value="Emergency (Ambulances)" style="swimlane;childLayout=stackLayout;horizontal=1;startSize=50;horizontalStack=0;rounded=1;fontSize=14;fontStyle=0;strokeWidth=2;resizeParent=0;resizeLast=1;shadow=0;dashed=0;align=center;arcSize=4;whiteSpace=wrap;html=1;" vertex="1" parent="1">
          <mxGeometry x="160" y="180" width="160" height="120" as="geometry" />
        </mxCell>
        <mxCell id="KemP2_x-M36B10j5vHPz-19" value="+ Ambulance ID&lt;br&gt;+ Location Dispatched to" style="align=left;strokeColor=none;fillColor=none;spacingLeft=4;fontSize=12;verticalAlign=top;resizable=0;rotatable=0;part=1;html=1;" vertex="1" parent="KemP2_x-M36B10j5vHPz-18">
          <mxGeometry y="50" width="160" height="70" as="geometry" />
        </mxCell>
      </root>
    </mxGraphModel>
  </diagram>
</mxfile>
